<?xml version="1.0" encoding="UTF-8" ?>
<!DOCTYPE svg PUBLIC "-//W3C//DTD SVG 1.1//EN" "http://www.w3.org/Graphics/SVG/1.1/DTD/svg11.dtd">
<svg width="582pt" height="578pt" viewBox="0 0 582 578" version="1.1" xmlns="http://www.w3.org/2000/svg">
<g id="#ffffffff">
</g>
<g id="#000000ff">
<path fill="#000000" opacity="1.00" d=" M 209.84 35.80 C 228.17 15.87 254.09 2.99 281.11 0.80 C 287.70 0.50 294.32 0.55 300.91 0.82 C 327.70 2.90 353.37 15.64 371.65 35.27 C 390.19 54.81 401.03 81.37 401.56 108.29 C 401.69 121.06 401.58 133.83 401.61 146.60 C 409.28 146.60 416.94 146.60 424.60 146.60 C 424.54 133.19 424.73 119.78 424.50 106.38 C 423.72 84.27 415.82 62.68 402.80 44.87 C 425.17 61.34 440.84 86.54 445.72 113.89 C 447.82 124.66 447.56 135.68 447.53 146.60 C 492.12 146.61 536.71 146.60 581.31 146.60 C 581.34 273.08 581.35 399.55 581.32 526.03 C 581.30 533.72 582.09 541.70 579.36 549.08 C 574.16 564.86 558.76 577.09 541.98 577.36 C 374.65 577.31 207.32 577.34 40.00 577.34 C 19.38 577.06 1.04 558.56 0.66 537.99 C 0.68 407.53 0.65 277.06 0.67 146.60 C 60.58 146.60 120.48 146.60 180.38 146.60 C 180.41 133.85 180.31 121.10 180.43 108.36 C 180.92 81.66 191.59 55.30 209.84 35.80 M 276.82 24.38 C 256.97 27.56 238.37 37.89 225.13 53.02 C 211.37 68.58 203.46 89.17 203.33 109.94 C 203.28 122.16 203.32 134.38 203.31 146.60 C 210.97 146.60 218.64 146.60 226.30 146.60 C 226.32 140.07 226.19 133.54 226.52 127.01 C 227.30 113.82 230.49 100.78 235.87 88.71 C 246.16 63.98 270.11 46.42 295.99 40.99 C 313.33 37.38 331.96 38.98 348.06 46.55 C 342.70 46.24 337.35 45.68 331.98 46.08 C 311.09 47.18 290.72 56.11 275.77 70.77 C 259.81 86.17 250.12 107.85 249.31 130.02 C 249.15 135.54 249.26 141.07 249.23 146.60 C 292.38 146.60 335.53 146.60 378.69 146.60 C 378.69 135.37 378.69 124.14 378.69 112.92 C 378.71 99.02 375.46 85.12 369.21 72.71 C 360.10 54.44 344.54 39.49 325.92 31.13 C 310.66 24.27 293.38 21.54 276.82 24.38 M 169.12 240.20 C 169.13 277.71 169.10 315.21 169.14 352.72 C 206.63 352.69 244.13 352.71 281.63 352.70 C 281.63 315.21 281.61 277.71 281.64 240.21 C 244.13 240.18 206.63 240.21 169.12 240.20 M 300.35 240.22 C 300.41 277.71 300.37 315.21 300.37 352.70 C 337.86 352.72 375.36 352.68 412.85 352.73 C 412.91 315.21 412.87 277.70 412.87 240.19 C 375.36 240.22 337.86 240.16 300.35 240.22 M 169.14 371.44 C 169.11 408.94 169.14 446.45 169.12 483.95 C 206.63 483.94 244.14 483.99 281.64 483.93 C 281.61 446.44 281.64 408.94 281.63 371.45 C 244.13 371.44 206.63 371.46 169.14 371.44 M 300.37 371.45 C 300.37 408.95 300.39 446.44 300.36 483.94 C 337.87 483.98 375.37 483.95 412.88 483.95 C 412.87 446.45 412.91 408.94 412.86 371.44 C 375.37 371.47 337.87 371.44 300.37 371.45 Z" />
</g>
<g id="#f25022ff">
<path fill="#f25022" opacity="1.00" d=" M 169.12 240.20 C 206.63 240.21 244.13 240.18 281.64 240.21 C 281.61 277.71 281.63 315.21 281.63 352.70 C 244.13 352.71 206.63 352.69 169.14 352.72 C 169.10 315.21 169.13 277.71 169.12 240.20 Z" />
</g>
<g id="#7fba00ff">
<path fill="#7fba00" opacity="1.00" d=" M 300.35 240.22 C 337.86 240.16 375.36 240.22 412.87 240.19 C 412.87 277.70 412.91 315.21 412.85 352.73 C 375.36 352.68 337.86 352.72 300.37 352.70 C 300.37 315.21 300.41 277.71 300.35 240.22 Z" />
</g>
<g id="#01a4efff">
<path fill="#01a4ef" opacity="1.00" d=" M 169.14 371.44 C 206.63 371.46 244.13 371.44 281.63 371.45 C 281.64 408.94 281.61 446.44 281.64 483.93 C 244.14 483.99 206.63 483.94 169.12 483.95 C 169.14 446.45 169.11 408.94 169.14 371.44 Z" />
</g>
<g id="#ffb901ff">
<path fill="#ffb901" opacity="1.00" d=" M 300.37 371.45 C 337.87 371.44 375.37 371.47 412.86 371.44 C 412.91 408.94 412.87 446.45 412.88 483.95 C 375.37 483.95 337.87 483.98 300.36 483.94 C 300.39 446.44 300.37 408.95 300.37 371.45 Z" />
</g>
</svg>
